<svg id="Layer_1" data-name="Layer 1" xmlns="http://www.w3.org/2000/svg" viewBox="0 0 183.5 187.56"><defs><style>.cls-1{fill:#fff;}</style></defs><path class="cls-1" d="M331.66,280.11c-.55-5.61,0-11.32-.15-17-.11-3.78.6-7.57-.58-11.36-2.61-8.37-9.69-12.06-16.62-15.45-31.63-15.5-64.86-22.15-99.9-16-19.3,3.36-37.93,9.11-54.75,19.61-7.41,4.62-12,10.7-11.38,20.07.44,7,0,14,.06,21,0,8.55,4.27,12.81,12.86,12.81q39.5,0,79,0v0c25.82,0,51.65-.3,77.46.17C326,294.12,332.5,288.73,331.66,280.11ZM316.78,269c0,10.08,0,10.08-10,10.09H239.87c-24,0-48-.09-71.94.08-3.86,0-5.36-.82-5-4.91a66.91,66.91,0,0,0-.05-13c-.56-5.11,1.7-8,5.85-10.39,14.61-8.54,30.46-13.27,47-16.08,29.63-5,58-.84,85.47,11C316.78,252.61,316.82,252.51,316.78,269Z" transform="translate(-148.23 -106.41)"/><path class="cls-1" d="M240,106.41c-23.09-.13-43.81,20.12-43.12,43.17a43.69,43.69,0,0,0,43.21,42.72c22.71.22,42.67-20.35,42.59-43.33S263,106.55,240,106.41Zm28,44.43c-.71,15.6-13.76,27-30.2,26.35-15.65-.6-27.05-14-26.26-30.79.65-14,14-25.48,29-24.85C257.66,122.26,268.8,134.14,268,150.84Z" transform="translate(-148.23 -106.41)"/></svg>