<svg id="Layer_1" data-name="Layer 1" xmlns="http://www.w3.org/2000/svg" viewBox="0 0 168.03 193.57"><defs><style>.cls-1{fill:#fff;}</style></defs><path class="cls-1" d="M310.74,160.28c-.27-7.17-5.38-13.25-12.49-13.83-6.62-.54-13.3-.38-19.95-.45-7.27-.07-7.24,0-7.71-7-.13-1.82-.61-3.61-.82-5.42-1.61-14.07-8.64-24.48-21.84-29.63-14.43-5.64-28.72-4.82-41.54,4.7-11,8.15-14.08,20.08-14.22,33,0,3.34-.63,4.6-4.3,4.45-7.48-.3-15-.24-22.47,0-8.76.33-14.24,6.34-14.47,15.07q-.42,16.47-1.11,32.93C148.67,222,147.11,250,147,277.92a14.94,14.94,0,0,0,13,15.19,68.66,68.66,0,0,0,9.94.63q30.48.08,60.95,0V294c21.64,0,43.29,0,64.94,0,12.85,0,19.59-8.26,19.19-19.94C313.68,236.11,312.16,198.2,310.74,160.28Zm-90.63-41.12c9.51-4.5,22.89-2.13,29.41,5,5.4,5.93,4.78,13.14,4.6,20.25-.06,2.06-2,1.33-3.14,1.34-6.49,0-13,0-19.48,0v0c-6.66,0-13.32,0-20,0-1.75,0-3,.09-3.32-2.44C206.94,132.75,211.48,123.25,220.11,119.16Zm75,158.8c-21.48.59-43,.12-64.43-.64-21.15,0-42.29-.11-63.44.09-3.81,0-4.65-1-4.49-4.68q2.19-53.87,4-107.76c.08-2.07.47-2.94,2.77-2.88q9.74.24,19.48,0c2.45,0,3.15.75,3.06,3.11-.17,4.16-.09,8.33,0,12.49.07,5.71,2.87,9.18,7.51,9.39s8.15-3.51,8.43-9.18c.2-4.15.31-8.32.15-12.48-.11-2.71.91-3.32,3.44-3.3q19.74.17,39.46,0c2.62,0,3.36.71,3.32,3.35-.07,4.81-.48,9.64.4,14.45.79,4.36,3.35,7,7.68,7.05s7.18-2.78,7.64-7.08a122,122,0,0,0,.51-14.44c0-2.55.6-3.47,3.32-3.37,6,.21,12,.18,18,0,2.46-.07,3,.82,3.06,3.12.91,25.44,2,50.88,2.91,76.32.41,10.81.6,21.63,1.1,32.43C299.08,277.05,298.19,277.88,295.1,278Z" transform="translate(-146.96 -100.4)"/></svg>